<?xml version="1.0" encoding="UTF-8" standalone="no"?>
<svg
   xmlns:dc="http://purl.org/dc/elements/1.1/"
   xmlns:cc="http://creativecommons.org/ns#"
   xmlns:rdf="http://www.w3.org/1999/02/22-rdf-syntax-ns#"
   xmlns:svg="http://www.w3.org/2000/svg"
   xmlns="http://www.w3.org/2000/svg"
   xmlns:sodipodi="http://sodipodi.sourceforge.net/DTD/sodipodi-0.dtd"
   xmlns:inkscape="http://www.inkscape.org/namespaces/inkscape"
   sodipodi:docname="Web Design.svg"
   inkscape:version="1.0 (4035a4fb49, 2020-05-01)"
   id="svg831"
   version="1.1"
   viewBox="0 0 22.577778 22.577778"
   height="64pt"
   width="64pt"
   inkscape:export-filename="D:\Project ++\Flat\png\Setting.png"
   inkscape:export-xdpi="576"
   inkscape:export-ydpi="576">
  <defs
     id="defs825">
    <pattern
       y="0"
       x="0"
       height="6"
       width="6"
       patternUnits="userSpaceOnUse"
       id="EMFhbasepattern" />
    <pattern
       y="0"
       x="0"
       height="6"
       width="6"
       patternUnits="userSpaceOnUse"
       id="EMFhbasepattern-9" />
    <pattern
       y="0"
       x="0"
       height="6"
       width="6"
       patternUnits="userSpaceOnUse"
       id="EMFhbasepattern-0" />
    <pattern
       y="0"
       x="0"
       height="6"
       width="6"
       patternUnits="userSpaceOnUse"
       id="EMFhbasepattern-7" />
    <pattern
       y="0"
       x="0"
       height="6"
       width="6"
       patternUnits="userSpaceOnUse"
       id="EMFhbasepattern-2" />
    <pattern
       y="0"
       x="0"
       height="6"
       width="6"
       patternUnits="userSpaceOnUse"
       id="EMFhbasepattern-98" />
    <pattern
       y="0"
       x="0"
       height="6"
       width="6"
       patternUnits="userSpaceOnUse"
       id="EMFhbasepattern-6" />
    <pattern
       y="0"
       x="0"
       height="6"
       width="6"
       patternUnits="userSpaceOnUse"
       id="EMFhbasepattern-01" />
    <pattern
       y="0"
       x="0"
       height="6"
       width="6"
       patternUnits="userSpaceOnUse"
       id="EMFhbasepattern-07" />
    <pattern
       y="0"
       x="0"
       height="6"
       width="6"
       patternUnits="userSpaceOnUse"
       id="EMFhbasepattern-8" />
    <pattern
       y="0"
       x="0"
       height="6"
       width="6"
       patternUnits="userSpaceOnUse"
       id="EMFhbasepattern-4" />
    <pattern
       y="0"
       x="0"
       height="6"
       width="6"
       patternUnits="userSpaceOnUse"
       id="EMFhbasepattern-40" />
    <pattern
       y="0"
       x="0"
       height="6"
       width="6"
       patternUnits="userSpaceOnUse"
       id="EMFhbasepattern-08" />
    <pattern
       y="0"
       x="0"
       height="6"
       width="6"
       patternUnits="userSpaceOnUse"
       id="EMFhbasepattern-04" />
    <pattern
       y="0"
       x="0"
       height="6"
       width="6"
       patternUnits="userSpaceOnUse"
       id="EMFhbasepattern-014" />
    <pattern
       y="0"
       x="0"
       height="6"
       width="6"
       patternUnits="userSpaceOnUse"
       id="EMFhbasepattern-27" />
    <pattern
       y="0"
       x="0"
       height="6"
       width="6"
       patternUnits="userSpaceOnUse"
       id="EMFhbasepattern-09" />
    <pattern
       y="0"
       x="0"
       height="6"
       width="6"
       patternUnits="userSpaceOnUse"
       id="EMFhbasepattern-5" />
    <pattern
       y="0"
       x="0"
       height="6"
       width="6"
       patternUnits="userSpaceOnUse"
       id="EMFhbasepattern-018" />
  </defs>
  <sodipodi:namedview
     inkscape:document-rotation="0"
     inkscape:snap-global="true"
     inkscape:snap-nodes="false"
     inkscape:bbox-nodes="true"
     inkscape:snap-bbox="true"
     showguides="true"
     inkscape:snap-midpoints="true"
     inkscape:snap-smooth-nodes="true"
     inkscape:snap-intersection-paths="true"
     inkscape:object-paths="true"
     inkscape:showpageshadow="false"
     inkscape:pagecheckerboard="true"
     inkscape:window-maximized="1"
     inkscape:window-y="-8"
     inkscape:window-x="-8"
     inkscape:window-height="706"
     inkscape:window-width="1366"
     units="pt"
     showgrid="false"
     inkscape:current-layer="layer1"
     inkscape:document-units="pt"
     inkscape:cy="42.56527"
     inkscape:cx="42.682208"
     inkscape:zoom="4.2757863"
     inkscape:pageshadow="2"
     inkscape:pageopacity="0.0"
     borderopacity="1.0"
     bordercolor="#666666"
     pagecolor="#ffffff"
     id="base">
    <inkscape:grid
       id="grid1378"
       type="xygrid" />
    <sodipodi:guide
       inkscape:locked="false"
       id="guide1380"
       orientation="78.000048,0"
       position="0.97013831,21.607643" />
    <sodipodi:guide
       inkscape:locked="false"
       id="guide1382"
       orientation="0,78.000005"
       position="0.97013831,0.97013129" />
    <sodipodi:guide
       inkscape:locked="false"
       id="guide1384"
       orientation="-78.000048,0"
       position="21.607639,0.97013129" />
    <sodipodi:guide
       inkscape:locked="false"
       id="guide1386"
       orientation="0,-78.000005"
       position="21.607639,21.607643" />
  </sodipodi:namedview>
  <metadata
     id="metadata828">
    <rdf:RDF>
      <cc:Work
         rdf:about="">
        <dc:format>image/svg+xml</dc:format>
        <dc:type
           rdf:resource="http://purl.org/dc/dcmitype/StillImage" />
        <dc:title></dc:title>
      </cc:Work>
    </rdf:RDF>
  </metadata>
  <g
     transform="translate(0,-274.42223)"
     id="layer1"
     inkscape:groupmode="layer"
     inkscape:label="Icon">
    <g
       style="stroke-width:0.794878"
       id="g36244"
       transform="matrix(1.2580543,0,0,1.2580543,39.01154,-192.40234)">
      <path
         style="color:#000000;clip-rule:evenodd;fill:#3a4d5c;fill-rule:evenodd;stroke-width:0.794878;stroke-linecap:round;stroke-linejoin:round;stroke-miterlimit:1.5"
         d="m -29.179687,373.16211 a 0.2645835,0.2645835 0 0 0 -0.265625,0.26562 v 13.22852 a 0.2645835,0.2645835 0 0 0 0.265625,0.26562 0.2645835,0.2645835 0 0 0 0.263671,-0.26562 v -13.22852 a 0.2645835,0.2645835 0 0 0 -0.263671,-0.26562 z"
         id="path100396" />
      <path
         style="color:#000000;clip-rule:evenodd;fill:#3a4d5c;fill-rule:evenodd;stroke-width:0.794878;stroke-linecap:round;stroke-linejoin:round;stroke-miterlimit:1.5"
         d="m -14.892578,373.16211 a 0.2645835,0.2645835 0 0 0 -0.263672,0.26562 v 13.22852 a 0.2645835,0.2645835 0 0 0 0.263672,0.26562 0.2645835,0.2645835 0 0 0 0.265625,-0.26562 v -13.22852 a 0.2645835,0.2645835 0 0 0 -0.265625,-0.26562 z"
         id="path100398" />
      <path
         style="color:#000000;clip-rule:evenodd;fill:#3a4d5c;fill-rule:evenodd;stroke-width:0.794878;stroke-linecap:round;stroke-linejoin:round;stroke-miterlimit:1.5"
         d="m -29.974609,374.2207 a 0.2645835,0.2645835 0 0 0 -0.263672,0.26563 0.2645835,0.2645835 0 0 0 0.263672,0.26367 h 15.875 a 0.2645835,0.2645835 0 0 0 0.265625,-0.26367 0.2645835,0.2645835 0 0 0 -0.265625,-0.26563 z"
         id="path100400" />
      <path
         style="color:#000000;clip-rule:evenodd;fill:#3a4d5c;fill-rule:evenodd;stroke-width:0.794878;stroke-linecap:round;stroke-linejoin:round;stroke-miterlimit:1.5"
         d="m -29.974609,385.33398 a 0.2645835,0.2645835 0 0 0 -0.263672,0.26368 0.2645835,0.2645835 0 0 0 0.263672,0.26562 h 15.875 a 0.2645835,0.2645835 0 0 0 0.265625,-0.26562 0.2645835,0.2645835 0 0 0 -0.265625,-0.26368 z"
         id="path100402" />
      <path
         style="color:#000000;fill:#f5f6e8;stroke-width:0.794878;stroke-linecap:round;stroke-linejoin:round;stroke-miterlimit:1.5"
         d="m -29.445312,374.2207 v 11.64258 h 14.818359 V 374.2207 c -4.939453,0 -9.878906,0 -14.818359,0 z"
         id="path111123"
         sodipodi:nodetypes="ccccc" />
      <path
         id="path229382"
         style="color:#000000;fill:#e4ebd7;fill-opacity:1;stroke-width:0.794878;stroke-linecap:round;stroke-linejoin:round;stroke-miterlimit:1.5"
         d="m -29.445231,374.2206 v 1.05834 c 9.828421,0 13.759883,5.64415 13.759883,10.58437 h 1.058334 V 374.2206 Z"
         sodipodi:nodetypes="cccccc" />
      <path
         style="color:#000000;clip-rule:evenodd;fill:#3a4d5c;fill-rule:evenodd;stroke-width:0.794878;stroke-linecap:round;stroke-linejoin:round;stroke-miterlimit:1.5"
         d="m -27.460937,379.77734 a 0.2645835,0.2645835 0 0 0 -0.263672,0.26368 v 3.17578 a 0.2645835,0.2645835 0 0 0 0.263672,0.26562 0.2645835,0.2645835 0 0 0 0.265625,-0.26562 v -3.17578 a 0.2645835,0.2645835 0 0 0 -0.265625,-0.26368 z"
         id="path100420" />
      <path
         style="color:#000000;clip-rule:evenodd;fill:#3a4d5c;fill-rule:evenodd;stroke-width:0.794878;stroke-linecap:round;stroke-linejoin:round;stroke-miterlimit:1.5"
         d="m -26.798828,383.61328 a 0.2645835,0.2645835 0 0 0 -0.263672,0.26563 0.2645835,0.2645835 0 0 0 0.263672,0.26367 h 3.439453 a 0.2645835,0.2645835 0 0 0 0.265625,-0.26367 0.2645835,0.2645835 0 0 0 -0.265625,-0.26563 z"
         id="path103996" />
      <path
         style="color:#000000;fill:#2bb3cd;stroke-width:0.794878;stroke-linecap:round;stroke-linejoin:round;stroke-miterlimit:1.5"
         d="m -27.818359,382.95312 c -0.30953,0 -0.56836,0.25689 -0.56836,0.56641 v 0.71875 c 0,0.30952 0.25884,0.56641 0.56836,0.56641 h 0.716797 c 0.309519,0 0.568359,-0.25689 0.568359,-0.56641 v -0.71875 c 0,-0.30952 -0.25883,-0.5664 -0.568359,-0.56641 z"
         id="path111143" />
      <path
         style="color:#000000;clip-rule:evenodd;fill:#3a4d5c;fill-rule:evenodd;stroke-width:0.794878;stroke-linecap:round;stroke-linejoin:round;stroke-miterlimit:1.5"
         d="m -22.697266,379.77734 a 0.2645835,0.2645835 0 0 0 -0.265625,0.26368 v 3.17578 a 0.2645835,0.2645835 0 0 0 0.265625,0.26562 0.2645835,0.2645835 0 0 0 0.263672,-0.26562 v -3.17578 a 0.2645835,0.2645835 0 0 0 -0.263672,-0.26368 z"
         id="path103601" />
      <path
         style="color:#000000;clip-rule:evenodd;fill:#febe40;fill-opacity:1;fill-rule:evenodd;stroke-width:0.794878;stroke-linecap:round;stroke-linejoin:round;stroke-miterlimit:1.5"
         d="m -26.550781,376.4043 c -0.139428,0 -0.273661,0.0552 -0.373047,0.15429 -0.09968,0.0992 -0.15625,0.235 -0.15625,0.375 v 0.59571 c 0,0.14 0.05511,0.27385 0.154297,0.37304 0.09923,0.0993 0.234445,0.1543 0.375,0.1543 h 9.029297 c 0.139928,0 0.273941,-0.0558 0.373047,-0.1543 0.09931,-0.0992 0.15625,-0.23304 0.15625,-0.37304 v -0.59571 c 0,-0.14 -0.05653,-0.27579 -0.15625,-0.375 -0.09939,-0.0991 -0.23362,-0.15429 -0.373047,-0.15429 z"
         id="path111157" />
      <path
         style="color:#000000;clip-rule:evenodd;fill:#3a4d5c;fill-rule:evenodd;stroke-width:0.794878;stroke-linecap:round;stroke-linejoin:round;stroke-miterlimit:1.5"
         d="m -28.121094,375.2793 a 0.2645835,0.2645835 0 0 0 -0.265625,0.26367 0.2645835,0.2645835 0 0 0 0.265625,0.26562 h 0.263672 a 0.2645835,0.2645835 0 0 0 0.265625,-0.26562 0.2645835,0.2645835 0 0 0 -0.265625,-0.26367 z"
         id="path111165" />
      <path
         style="color:#000000;clip-rule:evenodd;fill:#1e65a4;fill-rule:evenodd;stroke-width:0.794878;stroke-linecap:round;stroke-linejoin:round;stroke-miterlimit:1.5"
         d="m -24.376953,380.5918 -1.572266,0.52539 a 0.26460996,0.26460996 0 0 0 -0.103515,0.4375 l 1.048828,1.04687 a 0.26460996,0.26460996 0 0 0 0.4375,-0.10351 l 0.52539,-1.57032 a 0.26460996,0.26460996 0 0 0 -0.335937,-0.33593 z"
         id="path111173" />
      <path
         style="color:#000000;clip-rule:evenodd;fill:#3a4d5c;fill-rule:evenodd;stroke-width:0.794878;stroke-linecap:round;stroke-linejoin:round;stroke-miterlimit:1.5"
         d="m -26.798828,379.11523 a 0.2645835,0.2645835 0 0 0 -0.263672,0.26563 0.2645835,0.2645835 0 0 0 0.263672,0.26367 h 3.439453 a 0.2645835,0.2645835 0 0 0 0.265625,-0.26367 0.2645835,0.2645835 0 0 0 -0.265625,-0.26563 z"
         id="path103603" />
      <path
         style="color:#000000;clip-rule:evenodd;fill:#1e65a4;fill-rule:evenodd;stroke-width:0.794878;stroke-linecap:round;stroke-linejoin:round;stroke-miterlimit:1.5"
         d="m -25.341797,381.62695 a 0.2645835,0.2645835 0 0 0 -0.185547,0.0781 l -0.333984,0.33203 a 0.2645835,0.2645835 0 0 0 0,0.37305 0.2645835,0.2645835 0 0 0 0.375,0 l 0.332031,-0.33204 a 0.2645835,0.2645835 0 0 0 0,-0.375 0.2645835,0.2645835 0 0 0 -0.1875,-0.0762 z"
         id="path111187" />
      <path
         style="color:#000000;fill:#2bb3cd;stroke-width:0.794878;stroke-linecap:round;stroke-linejoin:round;stroke-miterlimit:1.5"
         d="m -23.056641,378.45508 c -0.30953,0 -0.566406,0.25688 -0.566406,0.5664 v 0.71875 c 0,0.30953 0.256887,0.56641 0.566406,0.56641 h 0.71875 c 0.30952,0 0.566407,-0.25688 0.566407,-0.56641 v -0.71875 c 0,-0.30952 -0.256877,-0.5664 -0.566407,-0.5664 z"
         id="path111017" />
      <path
         style="color:#000000;fill:#2bb3cd;stroke-width:0.794878;stroke-linecap:round;stroke-linejoin:round;stroke-miterlimit:1.5"
         d="m -23.056641,382.95312 c -0.309519,10e-6 -0.566406,0.25689 -0.566406,0.56641 v 0.71875 c 0,0.30952 0.256876,0.56641 0.566406,0.56641 h 0.71875 c 0.30953,0 0.566407,-0.25689 0.566407,-0.56641 v -0.71875 c 0,-0.30952 -0.256887,-0.5664 -0.566407,-0.56641 z"
         id="path111025" />
      <path
         style="color:#000000;fill:#2bb3cd;stroke-width:0.794878;stroke-linecap:round;stroke-linejoin:round;stroke-miterlimit:1.5"
         d="m -27.818359,378.45508 c -0.30952,0 -0.56836,0.25688 -0.56836,0.5664 v 0.71875 c 0,0.30953 0.25883,0.56641 0.56836,0.56641 h 0.716797 c 0.309529,0 0.568359,-0.25688 0.568359,-0.56641 v -0.71875 c 0,-0.30952 -0.25884,-0.5664 -0.568359,-0.5664 z"
         id="path111195" />
      <path
         style="color:#000000;clip-rule:evenodd;fill:#3a4d5c;fill-rule:evenodd;stroke-width:0.794878;stroke-linecap:round;stroke-linejoin:round;stroke-miterlimit:1.5"
         d="m -26.798828,375.2793 a 0.2645835,0.2645835 0 0 0 -0.263672,0.26367 0.2645835,0.2645835 0 0 0 0.263672,0.26562 h 0.265625 a 0.2645835,0.2645835 0 0 0 0.263672,-0.26562 0.2645835,0.2645835 0 0 0 -0.263672,-0.26367 z"
         id="path111203" />
      <path
         style="color:#000000;clip-rule:evenodd;fill:#50b86b;fill-rule:evenodd;stroke-width:0.794878;stroke-linecap:round;stroke-linejoin:round;stroke-miterlimit:1.5"
         d="m -18.595703,375.2793 a 0.2645835,0.2645835 0 0 0 -0.265625,0.26367 0.2645835,0.2645835 0 0 0 0.265625,0.26562 h 0.263672 a 0.2645835,0.2645835 0 0 0 0.263672,-0.26562 0.2645835,0.2645835 0 0 0 -0.263672,-0.26367 z"
         id="path111211" />
      <path
         style="color:#000000;clip-rule:evenodd;fill:#febe40;fill-rule:evenodd;stroke-width:0.794878;stroke-linecap:round;stroke-linejoin:round;stroke-miterlimit:1.5"
         d="m -17.273437,375.2793 a 0.2645835,0.2645835 0 0 0 -0.265625,0.26367 0.2645835,0.2645835 0 0 0 0.265625,0.26562 h 0.263671 a 0.2645835,0.2645835 0 0 0 0.265625,-0.26562 0.2645835,0.2645835 0 0 0 -0.265625,-0.26367 z"
         id="path107552" />
      <path
         style="color:#000000;clip-rule:evenodd;fill:#dc1c4b;fill-rule:evenodd;stroke-width:0.794878;stroke-linecap:round;stroke-linejoin:round;stroke-miterlimit:1.5"
         d="m -15.950115,375.28005 a 0.2645835,0.2645835 0 0 0 -0.265625,0.26368 0.2645835,0.2645835 0 0 0 0.265625,0.26562 0.2645835,0.2645835 0 0 0 0.263672,-0.26562 0.2645835,0.2645835 0 0 0 -0.263672,-0.26368 z"
         id="path107554" />
      <path
         style="color:#000000;clip-rule:evenodd;fill:#3a4d5c;fill-rule:evenodd;stroke-width:0.794878;stroke-linecap:round;stroke-linejoin:round;stroke-miterlimit:1.5"
         d="m -20.978516,379.24805 a 0.2645835,0.2645835 0 0 0 -0.263671,0.26562 0.2645835,0.2645835 0 0 0 0.263671,0.26367 h 5.027344 a 0.2645835,0.2645835 0 0 0 0.265625,-0.26367 0.2645835,0.2645835 0 0 0 -0.265625,-0.26562 z"
         id="path100434" />
      <path
         style="color:#000000;clip-rule:evenodd;fill:#3a4d5c;fill-rule:evenodd;stroke-width:0.794878;stroke-linecap:round;stroke-linejoin:round;stroke-miterlimit:1.5"
         d="m -19.390625,381.39844 a 0.2645835,0.2645835 0 0 0 -0.263672,0.26367 0.2645835,0.2645835 0 0 0 0.263672,0.26562 h 3.439453 a 0.2645835,0.2645835 0 0 0 0.265625,-0.26562 0.2645835,0.2645835 0 0 0 -0.265625,-0.26367 z"
         id="path100436" />
      <path
         style="color:#000000;clip-rule:evenodd;fill:#3a4d5c;fill-rule:evenodd;stroke-width:0.794878;stroke-linecap:round;stroke-linejoin:round;stroke-miterlimit:1.5"
         d="m -17.917969,380.33984 a 0.2645835,0.2645835 0 0 0 -0.265625,0.26368 0.2645835,0.2645835 0 0 0 0.265625,0.26562 h 1.966797 a 0.2645835,0.2645835 0 0 0 0.265625,-0.26562 0.2645835,0.2645835 0 0 0 -0.265625,-0.26368 z"
         id="path100438" />
      <path
         style="color:#000000;fill:#dc1c4b;stroke-width:0.794878;stroke-linecap:round;stroke-linejoin:round;stroke-miterlimit:1.5"
         d="m -20.775391,382.42383 c -0.253685,0 -0.466797,0.21116 -0.466796,0.46484 v 0.65625 c 0,0.25368 0.213127,0.46485 0.466796,0.46485 h 0.654297 c 0.253685,0 0.466797,-0.21116 0.466797,-0.46485 v -0.65625 c 0,-0.25368 -0.213128,-0.46484 -0.466797,-0.46484 z"
         id="path111033" />
      <path
         style="color:#000000;fill:#dc1c4b;stroke-width:0.794878;stroke-linecap:round;stroke-linejoin:round;stroke-miterlimit:1.5"
         d="m -18.660156,382.42383 c -0.253686,0 -0.464844,0.21116 -0.464844,0.46484 v 0.65625 c 0,0.25368 0.211175,0.46485 0.464844,0.46485 h 2.507812 c 0.253686,0 0.466797,-0.21116 0.466797,-0.46485 v -0.65625 c 0,-0.25368 -0.213128,-0.46484 -0.466797,-0.46484 z"
         id="path111041" />
      <path
         style="color:#000000;clip-rule:evenodd;fill:#3a4d5c;fill-opacity:1;fill-rule:evenodd;stroke-width:0.794878;stroke-linecap:round;stroke-linejoin:round;stroke-miterlimit:1.5"
         d="m -18.861328,378.05664 h 1.339844 c 0.139928,0 0.273941,-0.0558 0.373047,-0.1543 0.09931,-0.0992 0.15625,-0.23304 0.15625,-0.37304 v -0.59571 c 0,-0.14 -0.05653,-0.27579 -0.15625,-0.375 -0.09939,-0.0991 -0.23362,-0.15429 -0.373047,-0.15429 h -1.339844 z"
         id="path111249"
         sodipodi:nodetypes="cscsscscc" />
      <path
         id="path233626"
         style="color:#000000;fill:#1e65a4;fill-opacity:1;stroke-width:0.794878;stroke-linecap:round;stroke-linejoin:round;stroke-miterlimit:1.5"
         d="m -23.056715,378.45523 c -0.297439,0 -0.545838,0.23754 -0.564823,0.53072 0.01192,-7.9e-4 0.02357,-0.002 0.03566,-0.002 h 0.71882 c 0.30953,0 0.566373,0.25737 0.566373,0.56689 v 0.71831 c 0,0.0121 -2.62e-4,0.0243 -10e-4,0.0362 0.293179,-0.019 0.530201,-0.2679 0.530201,-0.56534 v -0.7183 c 0,-0.30952 -0.256844,-0.56689 -0.566374,-0.56689 z" />
      <path
         id="path236012"
         style="color:#000000;fill:#1e65a4;fill-opacity:1;stroke-width:0.794878;stroke-linecap:round;stroke-linejoin:round;stroke-miterlimit:1.5"
         d="m -27.755939,378.45523 c -0.297439,0 -0.545838,0.23754 -0.564823,0.53072 0.01192,-7.9e-4 0.02357,-0.002 0.03566,-0.002 h 0.71882 c 0.30953,0 0.566373,0.25737 0.566373,0.56689 v 0.71831 c 0,0.0121 -2.62e-4,0.0243 -0.001,0.0362 0.293179,-0.019 0.530201,-0.2679 0.530201,-0.56534 v -0.7183 c 0,-0.30952 -0.256844,-0.56689 -0.566374,-0.56689 z" />
      <path
         id="path236014"
         style="color:#000000;fill:#1e65a4;fill-opacity:1;stroke-width:0.794878;stroke-linecap:round;stroke-linejoin:round;stroke-miterlimit:1.5"
         d="m -23.056715,382.95328 c -0.297439,0 -0.545838,0.23754 -0.564823,0.53072 0.01192,-7.9e-4 0.02357,-0.002 0.03566,-0.002 h 0.71882 c 0.30953,0 0.566373,0.25737 0.566373,0.56689 v 0.71831 c 0,0.0121 -2.62e-4,0.0243 -10e-4,0.0362 0.293179,-0.019 0.530201,-0.2679 0.530201,-0.56534 v -0.7183 c 0,-0.30952 -0.256844,-0.56689 -0.566374,-0.56689 z" />
      <path
         id="path236016"
         style="color:#000000;fill:#1e65a4;fill-opacity:1;stroke-width:0.794878;stroke-linecap:round;stroke-linejoin:round;stroke-miterlimit:1.5"
         d="m -27.755939,382.95328 c -0.297439,0 -0.545838,0.23754 -0.564823,0.53072 0.01192,-7.9e-4 0.02357,-0.002 0.03566,-0.002 h 0.71882 c 0.30953,0 0.566373,0.25737 0.566373,0.56689 v 0.71831 c 0,0.0121 -2.62e-4,0.0243 -0.001,0.0362 0.293179,-0.019 0.530201,-0.2679 0.530201,-0.56534 v -0.7183 c 0,-0.30952 -0.256844,-0.56689 -0.566374,-0.56689 z" />
      <path
         id="path236972"
         style="color:#000000;fill:#b31e48;fill-opacity:1;stroke-width:0.794878;stroke-linecap:round;stroke-linejoin:round;stroke-miterlimit:1.5"
         d="m -18.660179,382.42383 c -0.253686,0 -0.464571,0.21141 -0.464571,0.46509 v 0.0641 h 2.443262 c 0.253669,0 0.466638,0.2114 0.466638,0.46508 v 0.5917 h 0.06253 c 0.253686,0 0.466638,-0.21088 0.466638,-0.46457 v -0.65629 c 0,-0.25368 -0.212969,-0.46509 -0.466638,-0.46509 z" />
      <path
         id="path254969"
         style="color:#000000;fill:#b31e48;fill-opacity:1;stroke-width:0.794878;stroke-linecap:round;stroke-linejoin:round;stroke-miterlimit:1.5"
         d="m -20.775612,382.42381 c -0.253685,0 -0.466639,0.21141 -0.466638,0.46509 v 0.0641 h 0.591695 c 0.253669,0 0.467155,0.21141 0.467155,0.46509 v 0.59169 h 0.06201 c 0.253685,0 0.467155,-0.21088 0.467155,-0.46457 v -0.65629 c 0,-0.25368 -0.213486,-0.46509 -0.467155,-0.46509 z" />
      <path
         id="path258428"
         style="color:#000000;clip-rule:evenodd;fill:#e97623;fill-opacity:1;fill-rule:evenodd;stroke-width:0.794878;stroke-linecap:round;stroke-linejoin:round;stroke-miterlimit:1.5"
         d="m -17.521411,376.40445 h -9.029424 c -0.139428,0 -0.273718,0.0549 -0.373104,0.154 -0.09968,0.0992 -0.156062,0.23517 -0.156062,0.37517 v 0.52917 c 0,-0.14001 0.05638,-0.27598 0.156062,-0.37518 0.09939,-0.0991 0.233676,-0.15399 0.373104,-0.15399 h 9.029424 z"
         sodipodi:nodetypes="cscsccscc" />
      <path
         id="path269402"
         style="color:#000000;clip-rule:evenodd;fill:#143441;fill-opacity:1;fill-rule:evenodd;stroke-width:0.794878;stroke-linecap:round;stroke-linejoin:round;stroke-miterlimit:1.5"
         d="m -18.861381,376.40445 v 0.52917 h 0.810803 c 0.139427,0 0.273714,0.0549 0.373104,0.15399 0.09972,0.0992 0.156063,0.23517 0.156063,0.37518 v 0.59376 c 0.139927,0 0.273997,-0.0555 0.373103,-0.154 0.09931,-0.0992 0.156063,-0.2331 0.156063,-0.3731 v -0.59583 c 0,-0.14 -0.05634,-0.27596 -0.156063,-0.37517 -0.09939,-0.0991 -0.233676,-0.154 -0.373103,-0.154 z" />
    </g>
  </g>
</svg>
